<svg width="108" height="25" viewBox="0 0 108 25" fill="none" xmlns="http://www.w3.org/2000/svg">
<path d="M54.8936 13.6716C52.6809 13.6716 50.9291 15.2692 50.9291 17.4882C50.9291 19.6183 52.6809 21.3047 54.8936 21.3047C57.1064 21.3047 58.8582 19.7071 58.8582 17.4882C58.8582 15.1805 57.1064 13.6716 54.8936 13.6716ZM54.8936 19.7071C53.695 19.7071 52.6808 18.7308 52.6808 17.3994C52.6808 16.068 53.695 15.0917 54.8936 15.0917C56.0922 15.0917 57.1064 15.9793 57.1064 17.3994C57.1064 18.7308 56.0922 19.7071 54.8936 19.7071ZM46.3191 13.6716C44.1064 13.6716 42.3546 15.2692 42.3546 17.4882C42.3546 19.6183 44.1064 21.3047 46.3191 21.3047C48.5319 21.3047 50.2837 19.7071 50.2837 17.4882C50.2837 15.1805 48.5319 13.6716 46.3191 13.6716ZM46.3191 19.7071C45.1206 19.7071 44.1064 18.7308 44.1064 17.3994C44.1064 16.068 45.1206 15.0917 46.3191 15.0917C47.5177 15.0917 48.5319 15.9793 48.5319 17.3994C48.5319 18.7308 47.5177 19.7071 46.3191 19.7071ZM36.0851 14.8254V16.4231H40.0496C39.9574 17.3107 39.5887 18.0207 39.1277 18.4645C38.5745 18.997 37.6525 19.6183 36.0851 19.6183C33.5957 19.6183 31.7518 17.7544 31.7518 15.358C31.7518 12.9615 33.6879 11.0976 36.0851 11.0976C37.3759 11.0976 38.3901 11.6302 39.1277 12.2515L40.3262 11.0976C39.3121 10.2101 38.0213 9.5 36.1773 9.5C32.8582 9.5 30 12.1627 30 15.358C30 18.5533 32.8582 21.216 36.1773 21.216C38.0213 21.216 39.3121 20.6834 40.4184 19.5296C41.5248 18.4645 41.8936 16.9556 41.8936 15.8018C41.8936 15.4467 41.8936 15.0917 41.8014 14.8254H36.0851ZM77.9433 16.068C77.5745 15.1805 76.6525 13.6716 74.6241 13.6716C72.5957 13.6716 70.9362 15.1805 70.9362 17.4882C70.9362 19.6183 72.5957 21.3047 74.8085 21.3047C76.5603 21.3047 77.6667 20.2396 78.0355 19.6183L76.7447 18.7308C76.2837 19.3521 75.7305 19.7959 74.8085 19.7959C73.8865 19.7959 73.3333 19.4408 72.8723 18.642L78.1277 16.5118L77.9433 16.068ZM72.5957 17.3107C72.5957 15.8905 73.7943 15.0917 74.6241 15.0917C75.2695 15.0917 75.9149 15.4467 76.0993 15.8905L72.5957 17.3107ZM68.2624 20.9497H70.0142V9.85503H68.2624V20.9497ZM65.4965 14.4704C65.0355 14.0266 64.2979 13.5828 63.3759 13.5828C61.4397 13.5828 59.5957 15.2692 59.5957 17.3994C59.5957 19.5296 61.3475 21.1272 63.3759 21.1272C64.2979 21.1272 65.0355 20.6834 65.4043 20.2396H65.4965V20.7722C65.4965 22.1923 64.6667 22.9911 63.3759 22.9911C62.3617 22.9911 61.6241 22.2811 61.4397 21.6598L59.9645 22.2811C60.4255 23.2574 61.5319 24.5 63.4681 24.5C65.4965 24.5 67.156 23.3462 67.156 20.5947V13.8491H65.4965V14.4704ZM63.4681 19.7071C62.2695 19.7071 61.2553 18.7308 61.2553 17.3994C61.2553 16.068 62.2695 15.0917 63.4681 15.0917C64.6667 15.0917 65.5886 16.068 65.5886 17.3994C65.5886 18.7308 64.6667 19.7071 63.4681 19.7071ZM85.9645 9.85503H81.8156V20.9497H83.5674V16.7781H85.9645C87.9007 16.7781 89.7447 15.4467 89.7447 13.3166C89.7447 11.1864 87.9007 9.85503 85.9645 9.85503ZM86.0567 15.1805H83.5674V11.3639H86.0567C87.3475 11.3639 88.0851 12.429 88.0851 13.2278C87.9929 14.2041 87.2553 15.1805 86.0567 15.1805ZM96.6596 13.5828C95.3688 13.5828 94.078 14.1154 93.617 15.2692L95.1844 15.8905C95.5532 15.2692 96.1064 15.0917 96.7518 15.0917C97.6738 15.0917 98.5035 15.6243 98.5957 16.5118V16.6006C98.3192 16.4231 97.5816 16.1568 96.844 16.1568C95.1844 16.1568 93.5248 17.0444 93.5248 18.642C93.5248 20.1509 94.9078 21.1272 96.383 21.1272C97.5816 21.1272 98.1348 20.5947 98.5957 20.0621H98.6879V20.9497H100.348V16.6893C100.163 14.7367 98.5957 13.5828 96.6596 13.5828ZM96.4752 19.7071C95.922 19.7071 95.0922 19.4408 95.0922 18.7308C95.0922 17.8432 96.1064 17.5769 96.9362 17.5769C97.6738 17.5769 98.0426 17.7544 98.5035 17.932C98.3192 18.997 97.3972 19.7071 96.4752 19.7071ZM106.156 13.8491L104.22 18.642H104.128L102.099 13.8491H100.255L103.298 20.5947L101.546 24.3225H103.298L108 13.8491H106.156ZM90.6667 20.9497H92.4184V9.85503H90.6667V20.9497Z" fill="#1A202C"/>
<path d="M11.7483 12.001L0.598716 23.1507C0.419348 22.9217 0.291016 22.5671 0.291016 22.1284V1.78023C0.291016 1.38871 0.340199 1.08765 0.442872 0.875002L11.7483 12.001Z" fill="#1A202C" stroke="white" stroke-width="0.5"/>
<path d="M12.167 12.0114L15.7086 8.46972L20.1716 11.02C20.771 11.3625 21.0124 11.7765 21.0124 12.138C21.0124 12.4989 20.7716 12.9123 20.1742 13.2545L15.7371 15.6505L12.167 12.0805V12.0114Z" fill="#1A202C" stroke="white" stroke-width="0.5"/>
<mask id="path-4-inside-1" fill="white">
<path d="M15.7844 15.8671L11.9173 12L0.408203 23.5092C0.868568 23.9695 1.51308 23.9695 2.34174 23.6012L15.7844 15.8671Z"/>
</mask>
<path d="M15.7844 15.8671L11.9173 12L0.408203 23.5092C0.868568 23.9695 1.51308 23.9695 2.34174 23.6012L15.7844 15.8671Z" fill="#1A202C"/>
<path d="M11.9173 12L12.2709 11.6464L11.9173 11.2929L11.5638 11.6464L11.9173 12ZM0.408203 23.5092L0.0546494 23.1556L-0.298903 23.5092L0.0546494 23.8627L0.408203 23.5092ZM2.34174 23.6012L2.54481 24.0581L2.56856 24.0476L2.59108 24.0346L2.34174 23.6012ZM16.138 15.5135L12.2709 11.6464L11.5638 12.3536L15.4309 16.2206L16.138 15.5135ZM11.5638 11.6464L0.0546494 23.1556L0.761757 23.8627L12.2709 12.3536L11.5638 11.6464ZM0.0546494 23.8627C0.377706 24.1858 0.7754 24.3498 1.21902 24.3656C1.64571 24.3809 2.09292 24.259 2.54481 24.0581L2.13867 23.1443C1.76189 23.3118 1.47253 23.374 1.25471 23.3663C1.05381 23.3591 0.899065 23.2929 0.761757 23.1556L0.0546494 23.8627ZM2.59108 24.0346L16.0338 16.3005L15.5351 15.4337L2.09239 23.1678L2.59108 24.0346Z" fill="white" mask="url(#path-4-inside-1)"/>
<path d="M2.21927 0.709098C2.21962 0.709293 2.21997 0.709489 2.22033 0.709684L15.3757 8.18843L11.9166 11.6475L0.780417 0.600313C0.923823 0.507222 1.08134 0.453652 1.25467 0.441271C1.51482 0.42269 1.83427 0.4954 2.21927 0.709098Z" fill="#1A202C" stroke="white" stroke-width="0.5"/>
<g opacity="0.2">
<mask id="path-7-inside-2" fill="white">
<path d="M15.6923 15.7754L2.34174 23.3254C1.60515 23.7858 0.960642 23.6937 0.500277 23.3254L0.408203 23.4175L0.500277 23.5095C0.960642 23.8778 1.60515 23.9699 2.34174 23.5095L15.6923 15.7754Z"/>
</mask>
<path d="M15.6923 15.7754L2.34174 23.3254C1.60515 23.7858 0.960642 23.6937 0.500277 23.3254L0.408203 23.4175L0.500277 23.5095C0.960642 23.8778 1.60515 23.9699 2.34174 23.5095L15.6923 15.7754Z" fill="#1A202C"/>
<path d="M15.6923 15.7754L15.943 16.208L15.4462 15.3402L15.6923 15.7754ZM2.34174 23.3254L2.09561 22.8902L2.08605 22.8956L2.07674 22.9014L2.34174 23.3254ZM0.500277 23.3254L0.812624 22.935L0.463165 22.6554L0.146719 22.9718L0.500277 23.3254ZM0.408203 23.4175L0.054646 23.0639L-0.298903 23.4175L0.0546528 23.771L0.408203 23.4175ZM0.500277 23.5095L0.146726 23.8631L0.166306 23.8827L0.187929 23.9L0.500277 23.5095ZM2.34174 23.5095L2.0911 23.0769L2.08385 23.0811L2.07674 23.0855L2.34174 23.5095ZM15.4462 15.3402L2.09561 22.8902L2.58787 23.7606L15.9385 16.2106L15.4462 15.3402ZM2.07674 22.9014C1.7777 23.0883 1.52986 23.1437 1.33593 23.1365C1.14294 23.1293 0.967808 23.0591 0.812624 22.935L0.187929 23.7158C0.493111 23.96 0.870418 24.1199 1.29892 24.1358C1.72649 24.1516 2.16919 24.0229 2.60674 23.7494L2.07674 22.9014ZM0.146719 22.9718L0.054646 23.0639L0.76176 23.771L0.853834 23.6789L0.146719 22.9718ZM0.0546528 23.771L0.146726 23.8631L0.853827 23.156L0.761753 23.0639L0.0546528 23.771ZM0.187929 23.9C0.493111 24.1441 0.870418 24.3041 1.29892 24.3199C1.72649 24.3358 2.16919 24.207 2.60674 23.9335L2.07674 23.0855C1.7777 23.2724 1.52986 23.3278 1.33593 23.3206C1.14294 23.3135 0.967808 23.2433 0.812624 23.1191L0.187929 23.9ZM2.59237 23.9422L15.943 16.208L15.4417 15.3427L2.0911 23.0769L2.59237 23.9422Z" fill="white" mask="url(#path-7-inside-2)"/>
</g>
<g opacity="0.2">
<mask id="path-9-inside-3" fill="white">
<path d="M0.409307 23.325C0.133088 23.0488 0.0410156 22.5884 0.0410156 22.036V22.128C0.0410156 22.6805 0.225161 23.1409 0.50138 23.4171V23.325H0.409307ZM20.2971 13.197L15.6934 15.775L15.7855 15.8671L20.2971 13.289C20.9416 12.9207 21.2178 12.4604 21.2178 12C21.2178 12.4604 20.8495 12.8287 20.2971 13.197Z"/>
</mask>
<path d="M0.409307 23.325C0.133088 23.0488 0.0410156 22.5884 0.0410156 22.036V22.128C0.0410156 22.6805 0.225161 23.1409 0.50138 23.4171V23.325H0.409307ZM20.2971 13.197L15.6934 15.775L15.7855 15.8671L20.2971 13.289C20.9416 12.9207 21.2178 12.4604 21.2178 12C21.2178 12.4604 20.8495 12.8287 20.2971 13.197Z" fill="#1A202C"/>
<path d="M0.409307 23.325L0.0557532 23.6785L0.2022 23.825H0.409307V23.325ZM0.50138 23.4171L0.147826 23.7706L1.00138 24.6242V23.4171H0.50138ZM0.50138 23.325H1.00138V22.825H0.50138V23.325ZM15.6934 15.775L15.4491 15.3387L14.8728 15.6615L15.3399 16.1286L15.6934 15.775ZM15.7855 15.8671L15.4319 16.2206L15.702 16.4907L16.0336 16.3012L15.7855 15.8671ZM20.2971 13.289L20.049 12.8549V12.8549L20.2971 13.289ZM0.762861 22.9714C0.638003 22.8466 0.541016 22.5691 0.541016 22.036H-0.458984C-0.458984 22.6077 -0.371827 23.251 0.0557532 23.6785L0.762861 22.9714ZM-0.458984 22.036V22.128H0.541016V22.036H-0.458984ZM-0.458984 22.128C-0.458984 22.7831 -0.241445 23.3814 0.147826 23.7706L0.854934 23.0635C0.691768 22.9004 0.541016 22.5779 0.541016 22.128H-0.458984ZM1.00138 23.4171V23.325H0.00138026V23.4171H1.00138ZM0.50138 22.825H0.409307V23.825H0.50138V22.825ZM20.0528 12.7607L15.4491 15.3387L15.9377 16.2113L20.5414 13.6332L20.0528 12.7607ZM15.3399 16.1286L15.4319 16.2206L16.139 15.5135L16.047 15.4214L15.3399 16.1286ZM16.0336 16.3012L20.5451 13.7231L20.049 12.8549L15.5374 15.433L16.0336 16.3012ZM20.5451 13.7231C21.2926 13.296 21.7178 12.6933 21.7178 12H20.7178C20.7178 12.2274 20.5905 12.5455 20.049 12.8549L20.5451 13.7231ZM20.7178 12C20.7178 12.1723 20.5794 12.4078 20.0197 12.7809L20.5744 13.613C21.1196 13.2495 21.7178 12.7485 21.7178 12H20.7178Z" fill="white" mask="url(#path-9-inside-3)"/>
</g>
<g opacity="0.2">
<mask id="path-11-inside-4" fill="white">
<path d="M2.34284 0.582931L20.2971 10.8031C20.8495 11.1713 21.2178 11.5396 21.2178 12C21.2178 11.5396 20.9416 11.0793 20.2971 10.711L2.34284 0.490858C1.05382 -0.245727 0.0410156 0.306712 0.0410156 1.77988V1.87196C0.0410156 0.490858 1.05382 -0.153654 2.34284 0.582931Z"/>
</mask>
<path d="M2.34284 0.582931L20.2971 10.8031C20.8495 11.1713 21.2178 11.5396 21.2178 12C21.2178 11.5396 20.9416 11.0793 20.2971 10.711L2.34284 0.490858C1.05382 -0.245727 0.0410156 0.306712 0.0410156 1.77988V1.87196C0.0410156 0.490858 1.05382 -0.153654 2.34284 0.582931Z" fill="white"/>
<path d="M2.34284 0.582931L2.09477 1.01705L2.09549 1.01746L2.34284 0.582931ZM20.2971 10.8031L20.5744 10.387L20.5597 10.3772L20.5444 10.3685L20.2971 10.8031ZM20.2971 10.711L20.5451 10.2769L20.5444 10.2764L20.2971 10.711ZM2.34284 0.490858L2.09477 0.92498L2.09549 0.92539L2.34284 0.490858ZM2.09549 1.01746L20.0497 11.2376L20.5444 10.3685L2.59019 0.148399L2.09549 1.01746ZM20.0197 11.2191C20.5794 11.5922 20.7178 11.8277 20.7178 12H21.7178C21.7178 11.2515 21.1196 10.7505 20.5744 10.387L20.0197 11.2191ZM21.7178 12C21.7178 11.3067 21.2926 10.704 20.5451 10.2769L20.049 11.1451C20.5905 11.4545 20.7178 11.7726 20.7178 12H21.7178ZM20.5444 10.2764L2.59019 0.0563262L2.09549 0.92539L20.0497 11.1455L20.5444 10.2764ZM2.59091 0.056737C1.86503 -0.358051 1.09256 -0.478612 0.465723 -0.130367C-0.167138 0.221224 -0.458984 0.942354 -0.458984 1.77988H0.541016C0.541016 1.14424 0.755571 0.852566 0.951366 0.74379C1.15318 0.63167 1.53163 0.603183 2.09477 0.92498L2.59091 0.056737ZM-0.458984 1.77988V1.87196H0.541016V1.77988H-0.458984ZM0.541016 1.87196C0.541016 1.29418 0.7487 0.98874 0.96048 0.865202C1.16967 0.743176 1.5464 0.703696 2.09477 1.01705L2.59091 0.14881C1.85026 -0.274418 1.07608 -0.359935 0.456608 0.00142337C-0.160268 0.361269 -0.458984 1.06863 -0.458984 1.87196H0.541016Z" fill="white" mask="url(#path-11-inside-4)"/>
</g>
<path d="M32.2858 3.94391H33.0207C33.1472 3.95966 33.2756 3.94904 33.3977 3.91271C33.5199 3.87638 33.6333 3.81513 33.7306 3.73283C33.828 3.65052 33.9072 3.54894 33.9634 3.43449C34.0195 3.32004 34.0513 3.1952 34.0568 3.06783C34.0568 2.56099 33.6755 2.23358 33.0288 2.23358C32.8991 2.21547 32.7672 2.22351 32.6408 2.25723C32.5143 2.29095 32.3959 2.34966 32.2926 2.4299C32.1892 2.51014 32.1029 2.61028 32.0389 2.7244C31.9748 2.83853 31.9343 2.96432 31.9197 3.09437H31.1129C31.1268 2.8583 31.1891 2.62762 31.296 2.41669C31.4029 2.20576 31.5521 2.0191 31.7342 1.86832C31.9164 1.71754 32.1277 1.60587 32.3549 1.54027C32.5821 1.47467 32.8203 1.45655 33.0548 1.48702C34.1369 1.48702 34.8988 2.09281 34.8988 2.96484C34.9013 3.25698 34.8036 3.54115 34.6219 3.76992C34.4402 3.99868 34.1855 4.1582 33.9003 4.22185V4.28661C34.2384 4.3016 34.5567 4.44981 34.7858 4.69885C35.0148 4.94788 35.136 5.27747 35.1227 5.61557C35.0977 5.85862 35.0244 6.09424 34.9072 6.30861C34.7899 6.52298 34.631 6.71179 34.4399 6.86396C34.2487 7.01613 34.0291 7.12862 33.7939 7.19481C33.5587 7.261 33.3126 7.27958 33.0701 7.24945C32.8272 7.28258 32.58 7.26644 32.3434 7.202C32.1068 7.13757 31.8855 7.02615 31.6929 6.87439C31.5003 6.72264 31.3402 6.53364 31.2221 6.31869C31.1041 6.10373 31.0305 5.86721 31.0059 5.62322H31.8253C31.8747 6.14896 32.3578 6.48809 33.0701 6.48809C33.7825 6.48809 34.2475 6.10717 34.2475 5.57019C34.2475 5.02556 33.8095 4.69006 33.0441 4.69006H32.2858V3.94391Z" fill="#1A202C"/>
<path d="M36.0527 5.94325C36.0527 5.19669 36.6095 4.7663 37.5953 4.70514L38.7187 4.64038V4.28239C38.7187 3.84435 38.43 3.597 37.8697 3.597C37.4127 3.597 37.097 3.76475 37.0053 4.05798H36.2128C36.2965 3.3456 36.9675 2.88867 37.9083 2.88867C38.9481 2.88867 39.5346 3.4063 39.5346 4.28239V7.11616H38.7457V6.53331H38.681C38.5495 6.74238 38.3649 6.91282 38.1461 7.02722C37.9272 7.14163 37.6819 7.1959 37.4352 7.18449C37.2611 7.2026 37.0851 7.18402 36.9186 7.12996C36.7522 7.0759 36.5988 6.98754 36.4686 6.8706C36.3383 6.75365 36.234 6.61071 36.1624 6.45098C36.0908 6.29126 36.0534 6.1183 36.0527 5.94325ZM38.7187 5.58886V5.24212L37.7059 5.30688C37.1348 5.3451 36.8757 5.53939 36.8757 5.90502C36.8757 6.27829 37.1995 6.49551 37.6448 6.49551C37.7752 6.50873 37.907 6.49556 38.0323 6.45679C38.1576 6.41803 38.2738 6.35446 38.374 6.26987C38.4742 6.18528 38.5563 6.08139 38.6156 5.9644C38.6748 5.8474 38.7099 5.71969 38.7187 5.58886Z" fill="#1A202C"/>
<path d="M41.7072 3.65774V7.11619H40.8887V2.96875H43.6195V3.6577L41.7072 3.65774Z" fill="#1A202C"/>
<path d="M48.5801 5.04055C48.5801 6.35826 47.9136 7.18443 46.8667 7.18443C46.6096 7.20198 46.353 7.14574 46.1268 7.02232C45.9007 6.8989 45.7146 6.71345 45.5903 6.48779H45.5255V8.49495H44.707V2.96864H45.495V3.65405H45.5561C45.6826 3.42052 45.8712 3.22648 46.101 3.09339C46.3309 2.96029 46.593 2.89331 46.8586 2.89985C47.9136 2.89982 48.5801 3.72238 48.5801 5.04055ZM47.7382 5.04055C47.7382 4.16447 47.3236 3.63514 46.6301 3.63514C45.9412 3.63514 45.5103 4.17571 45.5103 5.04415C45.5103 5.90854 45.9411 6.44957 46.6265 6.44957C47.3236 6.44956 47.7382 5.92022 47.7382 5.04055Z" fill="#1A202C"/>
<path d="M49.6718 8.60166V7.89692C49.7604 7.90818 49.8496 7.91329 49.9389 7.91221C50.1133 7.92513 50.2863 7.8732 50.4248 7.76637C50.5632 7.65955 50.6573 7.50537 50.6891 7.33341L50.7502 7.13147L49.249 2.96875H50.1404L51.1802 6.26304H51.245L52.2812 2.96875H53.1491L51.603 7.28754C51.2486 8.29674 50.8564 8.62055 50.0109 8.62055C49.9425 8.62054 49.7483 8.6129 49.6718 8.60166Z" fill="#1A202C"/>
<path d="M53.7852 5.93912H54.6001C54.6801 6.30478 55.0228 6.49544 55.5022 6.49544C56.0473 6.49544 56.3819 6.25528 56.3819 5.88202C56.3819 5.48221 56.0815 5.29152 55.5022 5.29152H54.8816V4.6556H55.4914C55.9861 4.6556 56.238 4.46537 56.238 4.11863C56.238 3.81415 55.9942 3.58165 55.4914 3.58165C55.0336 3.58165 54.699 3.77594 54.6459 4.10335H53.8571C53.9161 3.72713 54.1204 3.38909 54.426 3.16193C54.7316 2.93476 55.1142 2.83662 55.4914 2.88862C56.4773 2.88862 57.0412 3.3343 57.0412 4.03499C57.0458 4.23011 56.9833 4.42089 56.8641 4.57544C56.7449 4.73 56.5763 4.83895 56.3864 4.88409V4.94885C56.6125 4.978 56.82 5.08914 56.9695 5.26116C57.1191 5.43318 57.2003 5.65411 57.1977 5.88204C57.1977 6.67046 56.5267 7.19211 55.5022 7.19211C54.5965 7.19208 53.8607 6.77698 53.7852 5.93912Z" fill="#1A202C"/>
<path d="M58.377 7.11619V2.96875H59.1883V5.82142H59.253L61.1644 2.96876H61.9757V7.11619H61.1644V4.24826H61.1032L59.1883 7.1162L58.377 7.11619Z" fill="#1A202C"/>
<path d="M66.4452 3.6577H65.1391V7.11614H64.3197V3.6577H63.0137V2.96875H66.4452V3.6577Z" fill="#1A202C"/>
<path d="M70.8536 5.9964C70.7421 6.37543 70.501 6.70323 70.1723 6.92255C69.8437 7.14186 69.4484 7.23875 69.0556 7.19628C68.7824 7.2035 68.5108 7.15116 68.2598 7.04291C68.0089 6.93466 67.7844 6.77309 67.6021 6.56941C67.4199 6.36573 67.2841 6.12482 67.2042 5.8634C67.1244 5.60199 67.1024 5.32633 67.1398 5.05555C67.1034 4.78395 67.1258 4.5077 67.2054 4.2455C67.2851 3.9833 67.4201 3.74128 67.6015 3.53582C67.7828 3.33035 68.0061 3.16625 68.2564 3.05461C68.5067 2.94297 68.778 2.8864 69.052 2.88874C70.206 2.88874 70.9031 3.67716 70.9031 4.97953V5.26515H67.9745V5.31102C67.9615 5.46325 67.9805 5.61651 68.0303 5.76095C68.0801 5.9054 68.1596 6.03782 68.2636 6.14972C68.3676 6.26162 68.4939 6.35052 68.6343 6.4107C68.7748 6.47089 68.9262 6.50102 69.079 6.49918C69.2747 6.52257 69.4729 6.48726 69.6484 6.39773C69.8239 6.3082 69.9689 6.16849 70.0648 5.99637L70.8536 5.9964ZM67.9744 4.6598H70.0684C70.0787 4.52067 70.0599 4.38092 70.013 4.24952C69.9661 4.11812 69.8923 3.99797 69.7962 3.89679C69.7002 3.79562 69.584 3.71565 69.4553 3.66202C69.3265 3.60839 69.1879 3.58229 69.0484 3.58539C68.9068 3.58346 68.7662 3.60994 68.635 3.66326C68.5039 3.71658 68.3847 3.79565 68.2846 3.89581C68.1844 3.99597 68.1054 4.11519 68.0522 4.24641C67.9989 4.37763 67.9725 4.51819 67.9745 4.6598H67.9744Z" fill="#1A202C"/>
<path d="M74.3252 2.96875H76.1952C77.0065 2.96875 77.4823 3.37981 77.4823 4.02336C77.4836 4.22756 77.4147 4.426 77.2871 4.58548C77.1596 4.74495 76.9811 4.85579 76.7816 4.89943V4.96419C77.0238 4.9795 77.2509 5.08724 77.416 5.26518C77.581 5.44312 77.6714 5.67765 77.6685 5.92033C77.6685 6.64394 77.1243 7.11617 76.2141 7.11617H74.3252V2.96875ZM75.1365 3.59703V4.67097H75.9478C76.4425 4.67097 76.6791 4.48074 76.6791 4.12995C76.6791 3.80659 76.4731 3.59702 76.0387 3.59702L75.1365 3.59703ZM75.1365 5.27274V6.48792H76.1071C76.591 6.48792 76.85 6.2743 76.85 5.88213C76.85 5.46703 76.5568 5.27274 76.0045 5.27274L75.1365 5.27274Z" fill="#1A202C"/>
</svg>
