<svg width="100" height="25" viewBox="0 0 100 25" fill="none" xmlns="http://www.w3.org/2000/svg">
<path d="M15.0578 11.4275C15.0683 10.6121 15.2849 9.81268 15.6874 9.10351C16.0899 8.39433 16.6653 7.79849 17.3599 7.37142C16.9186 6.74117 16.3365 6.2225 15.6596 5.85661C14.9828 5.49071 14.23 5.28767 13.461 5.26361C11.8206 5.09142 10.2303 6.24522 9.39432 6.24522C8.54221 6.24522 7.25516 5.28071 5.86922 5.30922C4.97275 5.33819 4.09908 5.59887 3.33332 6.06588C2.56756 6.53289 1.93583 7.1903 1.49968 7.97404C-0.389573 11.2451 1.01964 16.0524 2.82942 18.6965C3.7349 19.9912 4.79313 21.4374 6.17783 21.3861C7.53283 21.3299 8.0389 20.5221 9.6745 20.5221C11.2949 20.5221 11.7697 21.3861 13.1825 21.3535C14.6365 21.3299 15.5526 20.053 16.4263 18.7461C17.0769 17.8235 17.5775 16.8039 17.9096 15.725C17.0649 15.3677 16.344 14.7697 15.8369 14.0055C15.3298 13.2413 15.0588 12.3447 15.0578 11.4275Z" fill="#1A202C"/>
<path d="M12.3883 3.52518C13.1811 2.57349 13.5717 1.35025 13.4771 0.115234C12.2659 0.242444 11.1471 0.821307 10.3436 1.73648C9.95079 2.18357 9.64991 2.7037 9.4582 3.26714C9.26649 3.83058 9.18771 4.42628 9.22636 5.02019C9.83216 5.02642 10.4315 4.89511 10.9792 4.63616C11.5269 4.3772 12.0087 3.99734 12.3883 3.52518Z" fill="#1A202C"/>
<path d="M36.1049 18.2391H31.6583L30.5904 21.3921H28.707L32.9188 9.72656H34.8756L39.0873 21.3921H37.1718L36.1049 18.2391ZM32.1188 16.7841H35.6435L33.9059 11.6669H33.8573L32.1188 16.7841Z" fill="#1A202C"/>
<path d="M48.1845 17.1405C48.1845 19.7835 46.7698 21.4816 44.6351 21.4816C44.0943 21.5098 43.5565 21.3853 43.0832 21.1221C42.6099 20.8589 42.2204 20.4678 41.959 19.9935H41.9186V24.2062H40.1729V12.8874H41.8627V14.3021H41.8948C42.1681 13.83 42.5643 13.4409 43.0412 13.1762C43.518 12.9114 44.0578 12.7809 44.6029 12.7984C46.7616 12.7985 48.1845 14.5048 48.1845 17.1405ZM46.39 17.1405C46.39 15.4185 45.5002 14.2865 44.1424 14.2865C42.8085 14.2865 41.9113 15.4424 41.9113 17.1405C41.9113 18.8542 42.8085 20.0018 44.1424 20.0018C45.5002 20.0018 46.39 18.878 46.39 17.1405H46.39Z" fill="#1A202C"/>
<path d="M57.5453 17.1405C57.5453 19.7835 56.1302 21.4816 53.9954 21.4816C53.4546 21.5098 52.9168 21.3853 52.4436 21.1221C51.9703 20.8589 51.5807 20.4678 51.3194 19.9935H51.279V24.2062H49.5332V12.8874H51.223V14.3021H51.2551C51.5285 13.83 51.9246 13.4409 52.4015 13.1762C52.8784 12.9114 53.4181 12.7809 53.9633 12.7984C56.1219 12.7985 57.5453 14.5048 57.5453 17.1405ZM55.7504 17.1405C55.7504 15.4185 54.8605 14.2865 53.5028 14.2865C52.1689 14.2865 51.2717 15.4424 51.2717 17.1405C51.2717 18.8542 52.1689 20.0018 53.5028 20.0018C54.8605 20.0018 55.7504 18.878 55.7504 17.1405Z" fill="#1A202C"/>
<path d="M63.7315 18.142C63.8608 19.2988 64.9846 20.0584 66.5203 20.0584C67.9918 20.0584 69.0505 19.2988 69.0505 18.2557C69.0505 17.3502 68.412 16.8081 66.9001 16.4365L65.3883 16.0723C63.2462 15.5549 62.2517 14.5531 62.2517 12.9275C62.2517 10.9147 64.0058 9.53223 66.4956 9.53223C68.9615 9.53223 70.6514 10.9147 70.7082 12.9275H68.9459C68.8404 11.7633 67.8781 11.0606 66.4717 11.0606C65.0653 11.0606 64.103 11.7716 64.103 12.8064C64.103 13.6311 64.7177 14.1164 66.2213 14.4879L67.5065 14.8035C69.9 15.3696 70.8935 16.331 70.8935 18.0373C70.8935 20.2198 69.156 21.5867 66.3909 21.5867C63.8039 21.5867 62.0572 20.2519 61.9443 18.1419L63.7315 18.142Z" fill="#1A202C"/>
<path d="M74.6626 10.874V12.8868H76.2799V14.2693H74.6626V18.9581C74.6626 19.6865 74.9864 20.0259 75.6974 20.0259C75.8894 20.0226 76.0811 20.0091 76.2717 19.9855V21.3598C75.952 21.4195 75.6271 21.4466 75.302 21.4405C73.58 21.4405 72.9085 20.7937 72.9085 19.1443V14.2693H71.6719V12.8868H72.9085V10.874H74.6626Z" fill="#1A202C"/>
<path d="M77.2158 17.1398C77.2158 14.4638 78.7919 12.7822 81.2496 12.7822C83.7155 12.7822 85.2843 14.4638 85.2843 17.1398C85.2843 19.8232 83.7238 21.4974 81.2496 21.4974C78.7763 21.4974 77.2158 19.8232 77.2158 17.1398ZM83.5054 17.1398C83.5054 15.3041 82.6642 14.2207 81.2496 14.2207C79.835 14.2207 78.9937 15.3124 78.9937 17.1398C78.9937 18.9829 79.835 20.0581 81.2496 20.0581C82.6642 20.0581 83.5054 18.9829 83.5054 17.1398H83.5054Z" fill="#1A202C"/>
<path d="M86.7236 12.8874H88.3887V14.335H88.4291C88.5418 13.8829 88.8066 13.4833 89.1792 13.2035C89.5517 12.9236 90.0093 12.7806 90.4749 12.7984C90.6761 12.7977 90.8767 12.8195 91.073 12.8635V14.4964C90.819 14.4188 90.5541 14.3832 90.2886 14.391C90.035 14.3807 89.7822 14.4254 89.5474 14.522C89.3127 14.6187 89.1017 14.765 88.9289 14.9509C88.7561 15.1368 88.6255 15.3579 88.5462 15.599C88.4669 15.8401 88.4407 16.0955 88.4694 16.3477V21.3925H86.7236L86.7236 12.8874Z" fill="#1A202C"/>
<path d="M99.1214 18.8939C98.8865 20.4379 97.3829 21.4974 95.4591 21.4974C92.9849 21.4974 91.4492 19.8397 91.4492 17.1802C91.4492 14.5124 92.9932 12.7822 95.3857 12.7822C97.7389 12.7822 99.2186 14.3987 99.2186 16.9775V17.5756H93.2115V17.6811C93.1838 17.9941 93.223 18.3094 93.3265 18.6061C93.43 18.9028 93.5954 19.1741 93.8118 19.402C94.0282 19.6298 94.2906 19.809 94.5816 19.9277C94.8726 20.0463 95.1855 20.1017 95.4995 20.0902C95.9121 20.1288 96.3261 20.0333 96.6799 19.8177C97.0338 19.6022 97.3087 19.2782 97.4636 18.8939L99.1214 18.8939ZM93.2198 16.3555H97.4719C97.4876 16.074 97.4449 15.7924 97.3466 15.5282C97.2482 15.264 97.0963 15.023 96.9005 14.8203C96.7046 14.6177 96.4689 14.4576 96.2082 14.3503C95.9476 14.243 95.6676 14.1908 95.3857 14.1968C95.1014 14.1951 94.8196 14.2498 94.5566 14.3576C94.2935 14.4653 94.0544 14.6242 93.853 14.8249C93.6516 15.0256 93.492 15.2641 93.3833 15.5268C93.2746 15.7895 93.219 16.0712 93.2198 16.3555V16.3555Z" fill="#1A202C"/>
<path d="M30.8797 3.31445H31.6292C31.7582 3.33052 31.8891 3.31968 32.0138 3.28263C32.1384 3.24558 32.254 3.18311 32.3533 3.09916C32.4526 3.01521 32.5334 2.91161 32.5907 2.79487C32.6479 2.67814 32.6804 2.55081 32.686 2.42091C32.686 1.90397 32.297 1.57004 31.6374 1.57004C31.5052 1.55156 31.3707 1.55977 31.2417 1.59416C31.1128 1.62855 30.992 1.68843 30.8866 1.77027C30.7811 1.8521 30.6931 1.95424 30.6278 2.07064C30.5625 2.18704 30.5212 2.31534 30.5063 2.44798H29.6834C29.6975 2.20721 29.7611 1.97193 29.8701 1.7568C29.9792 1.54166 30.1313 1.35128 30.3171 1.19749C30.5029 1.04371 30.7184 0.929814 30.9501 0.862909C31.1818 0.796003 31.4248 0.777517 31.664 0.808598C32.7676 0.808598 33.5447 1.42646 33.5447 2.31587C33.5473 2.61383 33.4476 2.90366 33.2623 3.13699C33.077 3.37031 32.8172 3.53301 32.5264 3.59793V3.66398C32.8711 3.67927 33.1958 3.83044 33.4295 4.08443C33.6631 4.33842 33.7866 4.67459 33.7731 5.01942C33.7476 5.26732 33.6729 5.50764 33.5533 5.72628C33.4337 5.94492 33.2716 6.13749 33.0767 6.29269C32.8817 6.4479 32.6577 6.56262 32.4178 6.63014C32.1779 6.69765 31.9269 6.7166 31.6796 6.68586C31.4318 6.71965 31.1797 6.7032 30.9384 6.63748C30.697 6.57175 30.4714 6.45812 30.2749 6.30333C30.0785 6.14855 29.9152 5.9558 29.7948 5.73655C29.6744 5.51731 29.5994 5.27608 29.5742 5.02723H30.41C30.4604 5.56344 30.9531 5.90933 31.6796 5.90933C32.4062 5.90933 32.8805 5.52082 32.8805 4.97314C32.8805 4.41765 32.4337 4.07547 31.653 4.07547H30.8797V3.31445Z" fill="#1A202C"/>
<path d="M34.7236 5.35374C34.7236 4.5923 35.2915 4.15333 36.297 4.09095L37.4428 4.0249V3.65978C37.4428 3.213 37.1483 2.96072 36.5768 2.96072C36.1107 2.96072 35.7887 3.13182 35.6952 3.43089H34.8869C34.9722 2.70431 35.6566 2.23828 36.6162 2.23828C37.6767 2.23828 38.2749 2.76623 38.2749 3.65978V6.55001H37.4703V5.95555H37.4043C37.2702 6.16879 37.0819 6.34262 36.8587 6.45931C36.6355 6.57599 36.3853 6.63134 36.1337 6.61971C35.9561 6.63818 35.7766 6.61924 35.6068 6.56409C35.437 6.50895 35.2806 6.41884 35.1478 6.29956C35.0149 6.18029 34.9085 6.03449 34.8355 5.87159C34.7624 5.70868 34.7243 5.53227 34.7236 5.35374ZM37.4428 4.99228V4.63863L36.4098 4.70468C35.8272 4.74366 35.563 4.94182 35.563 5.31474C35.563 5.69545 35.8933 5.917 36.3474 5.917C36.4805 5.93048 36.6149 5.91705 36.7427 5.87751C36.8704 5.83797 36.9889 5.77314 37.0911 5.68686C37.1933 5.60058 37.2771 5.49463 37.3375 5.3753C37.398 5.25598 37.4337 5.12572 37.4428 4.99228Z" fill="#1A202C"/>
<path d="M40.4901 3.02304V6.5504H39.6553V2.32031H42.4405V3.02299L40.4901 3.02304Z" fill="#1A202C"/>
<path d="M47.5011 4.43283C47.5011 5.77681 46.8213 6.61944 45.7534 6.61944C45.4913 6.63734 45.2295 6.57998 44.9989 6.4541C44.7683 6.32822 44.5784 6.13907 44.4517 5.90892H44.3856V7.95607H43.5508V2.31962H44.3544V3.0187H44.4168C44.5458 2.78051 44.7382 2.58261 44.9726 2.44686C45.207 2.31112 45.4744 2.2428 45.7452 2.24947C46.8213 2.24944 47.5011 3.08839 47.5011 4.43283ZM46.6424 4.43283C46.6424 3.5393 46.2195 2.99941 45.5122 2.99941C44.8095 2.99941 44.37 3.55076 44.37 4.43651C44.37 5.31812 44.8094 5.86993 45.5085 5.86993C46.2195 5.86992 46.6424 5.33003 46.6424 4.43283Z" fill="#1A202C"/>
<path d="M48.6119 8.06548V7.3467C48.7022 7.35818 48.7932 7.36339 48.8843 7.3623C49.0622 7.37547 49.2386 7.3225 49.3798 7.21355C49.521 7.1046 49.617 6.94734 49.6494 6.77195L49.7118 6.566L48.1807 2.32031H49.0898L50.1503 5.68026H50.2164L51.2732 2.32031H52.1585L50.5815 6.72517C50.2201 7.75448 49.8201 8.08475 48.9577 8.08475C48.888 8.08474 48.6898 8.07694 48.6119 8.06548Z" fill="#1A202C"/>
<path d="M52.8076 5.3498H53.6388C53.7204 5.72275 54.07 5.9172 54.5589 5.9172C55.1149 5.9172 55.4561 5.67226 55.4561 5.29156C55.4561 4.88378 55.1497 4.68929 54.5589 4.68929H53.9259V4.0407H54.5479C55.0525 4.0407 55.3094 3.84667 55.3094 3.49302C55.3094 3.18248 55.0607 2.94535 54.5479 2.94535C54.081 2.94535 53.7397 3.1435 53.6855 3.47744H52.881C52.9412 3.09373 53.1495 2.74895 53.4612 2.51726C53.7729 2.28556 54.1632 2.18547 54.5479 2.2385C55.5534 2.2385 56.1286 2.69307 56.1286 3.40771C56.1333 3.60672 56.0695 3.80131 55.9479 3.95894C55.8264 4.11658 55.6544 4.2277 55.4607 4.27374V4.33979C55.6913 4.36953 55.9029 4.48288 56.0555 4.65832C56.208 4.83377 56.2908 5.05911 56.2882 5.29157C56.2882 6.09571 55.6038 6.62775 54.5589 6.62775C53.6351 6.62773 52.8847 6.20435 52.8076 5.3498Z" fill="#1A202C"/>
<path d="M57.4912 6.5504V2.32031H58.3187V5.22983H58.3847L60.3342 2.32032H61.1617V6.55041H60.3342V3.62532H60.2718L58.3187 6.55042L57.4912 6.5504Z" fill="#1A202C"/>
<path d="M65.7196 3.02299H64.3875V6.55035H63.5518V3.02299H62.2197V2.32031H65.7196V3.02299Z" fill="#1A202C"/>
<path d="M70.218 5.40795C70.1043 5.79453 69.8583 6.12887 69.5231 6.35255C69.188 6.57624 68.7848 6.67505 68.3842 6.63174C68.1055 6.6391 67.8285 6.58572 67.5726 6.47531C67.3166 6.3649 67.0877 6.20011 66.9018 5.99237C66.7158 5.78463 66.5774 5.53892 66.4959 5.2723C66.4145 5.00567 66.392 4.72452 66.4302 4.44835C66.393 4.17133 66.4159 3.88957 66.4971 3.62215C66.5784 3.35472 66.7161 3.10788 66.9011 2.89832C67.086 2.68877 67.3138 2.52139 67.5691 2.40753C67.8243 2.29366 68.101 2.23597 68.3805 2.23835C69.5575 2.23835 70.2685 3.04249 70.2685 4.37081V4.66212H67.2815V4.7089C67.2683 4.86417 67.2877 5.02049 67.3385 5.16781C67.3892 5.31513 67.4703 5.45019 67.5764 5.56432C67.6825 5.67845 67.8113 5.76912 67.9545 5.8305C68.0977 5.89189 68.2522 5.92262 68.408 5.92074C68.6076 5.9446 68.8097 5.90859 68.9888 5.81727C69.1678 5.72596 69.3157 5.58347 69.4135 5.40792L70.218 5.40795ZM67.2815 4.0447H69.4171C69.4277 3.9028 69.4085 3.76027 69.3606 3.62625C69.3128 3.49223 69.2375 3.36969 69.1396 3.26649C69.0416 3.1633 68.9231 3.08174 68.7918 3.02704C68.6604 2.97234 68.5191 2.94572 68.3768 2.94888C68.2324 2.94692 68.089 2.97392 67.9552 3.0283C67.8214 3.08268 67.6999 3.16334 67.5978 3.26549C67.4957 3.36765 67.4151 3.48924 67.3607 3.62307C67.3064 3.75691 67.2795 3.90028 67.2815 4.0447H67.2815Z" fill="#1A202C"/>
<path d="M73.7578 2.32031H75.6651C76.4926 2.32031 76.9779 2.73956 76.9779 3.39593C76.9791 3.60421 76.9089 3.80661 76.7788 3.96926C76.6487 4.13192 76.4667 4.24496 76.2632 4.28947V4.35552C76.5102 4.37113 76.7419 4.48103 76.9102 4.66251C77.0785 4.84399 77.1707 5.0832 77.1678 5.33071C77.1678 6.06875 76.6127 6.55038 75.6843 6.55038H73.7578V2.32031ZM74.5853 2.96111V4.05646H75.4128C75.9174 4.05646 76.1586 3.86244 76.1586 3.50465C76.1586 3.17485 75.9486 2.9611 75.5055 2.9611L74.5853 2.96111ZM74.5853 4.67021V5.90961H75.5752C76.0688 5.90961 76.333 5.69174 76.333 5.29176C76.333 4.86838 76.0339 4.67022 75.4706 4.67022L74.5853 4.67021Z" fill="#1A202C"/>
</svg>
