<svg width="38" height="36" viewBox="0 0 38 36" fill="none" xmlns="http://www.w3.org/2000/svg">
<path d="M36.2839 3.34887H22.4368V0H19.8555L0 3.35722V32.6511L19.739 36H22.4368V32.6637H35.3946C36.1284 32.6302 36.9442 32.6846 37.5744 32.2493C38.0794 31.5 37.95 30.5623 37.9931 29.7167V4.97303C38.0837 4.01862 37.268 3.25257 36.2839 3.34887ZM14.3996 23.6888C13.6787 24.053 12.5996 23.6721 11.745 23.7307C11.1709 20.9596 10.5018 18.2051 9.98821 15.4214C9.48316 18.1256 8.82706 20.8046 8.24867 23.4921C7.41995 23.4502 6.58692 23.3999 5.75381 23.3456C5.03723 19.6618 4.19559 16.0032 3.5265 12.3112C4.26461 12.2777 5.00702 12.2484 5.74513 12.2233C6.1897 14.8898 6.69476 17.5437 7.08329 20.2144C7.69189 17.4767 8.31339 14.7391 8.91776 12.0014C9.73787 11.9554 10.558 11.9219 11.3781 11.88C11.9522 14.7056 12.5392 17.527 13.1608 20.34C13.6485 17.4349 14.188 14.5381 14.7104 11.6372C15.5736 11.6079 16.4369 11.5619 17.2959 11.5116C16.3204 15.5679 15.4657 19.6577 14.3996 23.6888ZM35.9387 30.6756H22.4368V28.0465H33.6594V26.3721H22.4368V24.2791H33.6594V22.6047H22.4368V20.5116H33.6594V18.8372H22.4368V16.7441H33.6594V15.0698H22.4368V12.9767H33.6594V11.3023H22.4368V9.20931H33.6594V7.53491H22.4368V5.3245H35.9387V30.6755V30.6756Z" fill="#2F80ED"/>
</svg>
