<svg width="132" height="42" viewBox="0 0 132 42" fill="none" xmlns="http://www.w3.org/2000/svg">
<path d="M3.05698 29.3348C4.81211 27.7848 6.73243 27.7434 8.6734 28.3428C10.3666 28.8594 11.4403 30.0994 11.6055 31.856C11.7707 33.4887 11.7913 35.1627 11.6674 36.7953C11.4816 38.9653 10.1188 40.3706 7.992 40.8253C7.28994 40.9699 6.56724 41.0526 5.84454 41.0319C2.12779 40.9699 0.29007 39.11 0.310719 35.3693C0.331368 32.8274 0.29007 30.2647 0.517205 27.7434C0.826934 24.2715 2.62336 22.6802 6.09233 22.4322C7.35189 22.3288 8.61145 22.2048 9.87102 22.0395C10.7383 21.9362 10.7589 22.6388 10.9654 23.1348C11.1925 23.6722 11.4403 24.3128 10.6763 24.6228C10.1395 24.8295 9.56129 24.9535 8.98313 25.0155C8.19848 25.0981 7.39319 25.0775 6.60854 25.1188C3.82098 25.2428 2.82985 26.3795 3.05698 29.3348ZM3.20152 34.46H3.22217C3.22217 35.08 3.16022 35.7 3.24282 36.32C3.40801 37.7046 4.33719 38.3866 5.94778 38.4073C7.66162 38.428 8.6734 37.7873 8.7973 36.4027C8.90054 35.142 8.85924 33.8607 8.7973 32.6C8.756 31.7734 8.28108 31.2154 7.51708 30.9054C5.12184 29.9341 3.20152 31.2154 3.20152 33.7574C3.20152 33.964 3.20152 34.212 3.20152 34.46Z" fill="#1A202C"/>
<path d="M3.82092 10.3837C3.82092 12.5124 3.77963 14.5583 3.84157 16.625C3.86222 17.555 3.55249 17.989 2.60266 17.9063C2.29293 17.8856 1.9832 17.9063 1.67347 17.9063C1.05401 17.9063 0.723633 17.6376 0.723633 16.9763C0.723633 11.6857 0.723633 6.37445 0.723633 1.08385C0.723633 0.443194 1.01271 0.112532 1.65282 0.153864C1.69412 0.153864 1.71477 0.153864 1.75606 0.153864C3.84157 0.0505324 3.84157 0.0505327 3.84157 2.0965C3.84157 3.85315 3.84157 5.58912 3.84157 7.3251C4.77076 7.65576 5.30762 7.3871 5.82383 6.66377C6.98015 5.01046 8.23972 3.39849 9.45798 1.78651C10.7382 0.0918654 11.7087 -0.238797 14.1659 0.422527C12.3488 3.10916 10.2426 5.48579 8.34296 8.13109C9.9742 8.93708 10.7176 10.4044 11.4609 11.8717C12.2455 13.4423 13.0715 14.9923 13.8768 16.5423C14.5375 17.8236 14.4549 17.9476 12.9682 17.9476C12.7205 17.9476 12.4933 17.927 12.2455 17.9476C11.3577 18.0096 10.7795 17.6583 10.3872 16.7903C9.76771 15.4057 9.06566 14.083 8.38426 12.719C7.22794 10.3837 6.56718 10.0324 3.82092 10.3837Z" fill="#1A202C"/>
<path d="M45.9651 12.3262C45.738 14.0622 46.0683 14.9302 47.1214 15.4262C48.4016 16.0462 50.4252 15.7155 51.3544 14.7442C52.1803 13.8555 53.2128 13.8349 53.9768 14.8062C54.1626 15.0335 54.1626 15.6948 53.9768 15.8808C53.2128 16.6042 52.4488 17.4102 51.5196 17.7822C49.909 18.4641 48.1539 18.4228 46.4607 17.9475C44.4371 17.3688 43.1775 15.8808 43.0536 13.7729C42.9711 12.2022 42.9711 10.6109 43.0536 9.0196C43.1775 6.84963 44.4371 5.25832 46.5433 4.84499C47.8854 4.57633 49.3721 4.55566 50.7143 4.80366C53.0269 5.23765 54.3278 6.9943 54.431 9.37093C54.5756 12.3262 54.5756 12.3262 51.6022 12.3262C49.7231 12.3262 47.8441 12.3262 45.9651 12.3262ZM51.5196 10.0529C51.6435 8.89561 51.4783 7.90362 50.4459 7.38696C49.2069 6.76697 47.9061 6.76697 46.7498 7.57296C45.9032 8.17228 45.7999 9.06094 45.9651 10.0323C47.8235 10.0529 49.6405 10.0529 51.5196 10.0529Z" fill="#1A202C"/>
<path d="M32.3374 12.9873C33.8654 10.776 35.5586 8.31666 37.2725 5.87802C37.9126 4.9687 39.0276 4.55537 40.0394 4.9687C40.2665 5.07203 40.5349 5.46469 40.5349 5.73336C40.5762 9.51531 40.5762 13.3179 40.5143 17.0999C40.5143 17.3685 40.1013 17.7612 39.7916 17.8645C39.3786 17.9885 38.8624 18.0092 38.4701 17.8645C38.1397 17.7405 37.7061 17.3272 37.7061 17.0379C37.6854 14.4752 37.768 11.8919 37.8093 9.55664C37.0453 10.6933 36.1161 12.0779 35.1663 13.4626C34.3404 14.6819 33.4731 15.9012 32.6265 17.0999C32.131 17.8232 30.5823 18.2572 29.8803 17.8025C29.6531 17.6579 29.4879 17.2445 29.4879 16.9345C29.4673 13.2559 29.4673 9.55664 29.4673 5.87802C29.4673 5.19603 29.7357 4.8447 30.4584 4.9067C30.7269 4.92737 31.0159 4.92737 31.2844 4.9067C32.0897 4.82404 32.3787 5.19603 32.3581 5.98135C32.3168 8.37865 32.3374 10.7966 32.3374 12.9873Z" fill="#1A202C"/>
<path d="M21.4961 32.9719C21.62 31.2773 21.2896 30.5126 20.3191 30.0993C19.0595 29.562 17.449 29.934 16.5404 30.9673C15.9416 31.6699 15.1776 31.6493 14.2278 30.9466C13.4844 30.3679 13.918 29.748 14.3517 29.376C15.0744 28.7146 15.859 27.9293 16.7469 27.7227C18.1097 27.4127 19.6171 27.3507 21.0005 27.578C23.1067 27.9086 24.2836 29.4586 24.3869 31.7939C24.4901 34.2326 24.4695 36.6712 24.3869 39.1305C24.3662 39.5852 23.8707 40.2465 23.4577 40.3911C20.9386 41.2591 18.3368 41.3625 15.7558 40.5978C14.1865 40.1225 13.4431 38.6965 13.5257 36.7125C13.6083 34.8319 14.4136 33.6952 16.1068 33.3232C17.2012 33.0752 18.3575 33.0752 19.4725 33.0132C20.1333 32.9306 20.7734 32.9719 21.4961 32.9719ZM21.558 35.4312C20.2159 35.4312 18.9563 35.3692 17.7174 35.4519C16.8708 35.5139 16.4785 36.1339 16.4785 36.9605C16.4785 37.8492 16.9121 38.4692 17.7793 38.5312C18.8324 38.5932 19.9061 38.5518 20.9592 38.4485C21.1864 38.4278 21.5167 38.0352 21.5374 37.8078C21.5993 37.0639 21.558 36.2992 21.558 35.4312Z" fill="#1A202C"/>
<path d="M119.951 17.5748C120.86 16.1488 121.706 14.8055 122.635 13.3588C120.818 12.4702 120.137 10.9822 120.22 9.06023C120.323 6.68359 121.768 5.07162 124.143 4.96828C126.125 4.86495 128.128 4.94762 130.131 4.92695C130.73 4.92695 130.998 5.19561 130.998 5.79494C130.998 9.55622 131.019 13.2968 130.957 17.0581C130.957 17.3475 130.503 17.7401 130.172 17.8848C129.821 18.0294 129.367 17.9261 128.954 17.9261C128.355 17.9261 128.107 17.5954 128.107 17.0168C128.128 15.9628 128.107 14.9088 128.107 13.7515C127.343 13.7515 126.703 13.6895 126.063 13.7722C125.774 13.8135 125.444 14.0408 125.279 14.2888C124.804 14.9915 124.391 15.7561 123.936 16.5001C123.048 17.9881 121.892 18.3394 119.951 17.5748ZM128.066 7.55158C126.91 7.55158 125.857 7.51025 124.804 7.57225C123.833 7.63425 123.234 8.31624 123.193 9.24623C123.152 10.1555 123.73 10.9615 124.68 11.0235C125.795 11.1062 126.91 11.0442 128.066 11.0442C128.066 9.86622 128.066 8.7709 128.066 7.55158Z" fill="#1A202C"/>
<path d="M115.013 10.2803C115.178 8.56495 114.848 7.75896 113.898 7.34564C112.701 6.82898 111.007 7.1803 110.181 8.08963C109.521 8.83362 108.137 8.79228 107.6 7.98629C107.456 7.77963 107.476 7.38697 107.559 7.1183C108.22 5.42366 110.615 4.34901 113.196 4.53501C115.715 4.721 117.264 5.83699 117.739 7.8623C117.863 8.39962 117.945 8.95761 117.945 9.49494C117.966 11.7062 117.945 13.8969 117.966 16.1082C117.987 16.9555 117.615 17.4722 116.81 17.7202C114.373 18.4228 111.916 18.5262 109.479 17.9062C107.828 17.4928 107.022 16.1495 107.043 14.1655C107.064 12.2229 107.828 10.9829 109.521 10.5903C110.636 10.3216 111.833 10.3009 112.99 10.2389C113.65 10.1769 114.291 10.2596 115.013 10.2803ZM115.096 12.6982C113.712 12.6982 112.412 12.6362 111.131 12.7189C110.305 12.7809 110.016 13.4422 110.016 14.2069C110.016 14.9715 110.326 15.5709 111.152 15.6949C111.895 15.7982 112.659 15.8395 113.403 15.8189C115.116 15.7569 115.116 15.7362 115.116 14.0829C115.096 13.6695 115.096 13.2562 115.096 12.6982Z" fill="#1A202C"/>
<path d="M47.1847 32.972C47.2467 31.7734 47.288 30.6987 46.0697 30.12C44.8928 29.5621 43.2202 29.9134 42.353 30.8434C41.6509 31.5874 40.3707 31.5874 39.7719 30.7607C39.6274 30.5747 39.6067 30.1407 39.71 29.9341C39.9784 29.4587 40.2881 28.9834 40.6804 28.6321C42.4975 26.9581 46.5859 26.8341 48.5063 28.3634C49.518 29.1694 50.0136 30.2647 50.0343 31.5047C50.0962 34.0467 50.1169 36.6093 50.0343 39.1513C50.0136 39.5646 49.5593 40.2259 49.167 40.3499C46.6066 41.2179 43.9636 41.3626 41.3618 40.5359C39.7926 40.0399 39.1318 38.6759 39.235 36.5886C39.3176 34.7493 40.0816 33.654 41.7542 33.282C42.8485 33.034 44.0049 33.034 45.1199 32.972C45.8013 32.9307 46.4414 32.972 47.1847 32.972ZM47.2054 35.4106C45.8632 35.4106 44.6656 35.3486 43.4886 35.4313C42.5595 35.4933 42.1465 36.0926 42.1671 37.064C42.1878 37.9939 42.7246 38.4899 43.5506 38.5519C44.5417 38.6346 45.5329 38.5726 46.5033 38.4899C46.7511 38.4693 47.1435 38.0766 47.1641 37.8286C47.2673 37.0846 47.2054 36.32 47.2054 35.4106Z" fill="#1A202C"/>
<path d="M36.1367 33.964C37.8712 34.9146 38.0983 36.4233 37.8092 38.0353C37.5202 39.6679 36.3225 40.4532 34.8152 40.7839C33.0394 41.1766 31.2636 41.1766 29.5498 40.4739C28.3109 39.9779 27.3817 39.1512 26.8035 37.9526C26.4731 37.2706 26.5764 36.7953 27.3817 36.5266C28.8064 36.0306 28.8064 36.01 29.7356 37.2913C30.5822 38.4486 33.2665 38.9239 34.3196 37.9733C34.6913 37.6426 34.9597 36.8573 34.8565 36.3613C34.7739 35.9273 34.1338 35.4313 33.6589 35.328C32.8329 35.1626 31.945 35.2453 31.0984 35.266C30.3138 35.2866 30.1899 34.8526 30.2105 34.212C30.2312 33.6127 30.066 32.8893 31.0365 32.91C31.8211 32.91 32.6264 32.91 33.4111 32.8687C34.1544 32.8273 34.6293 32.414 34.6913 31.6494C34.7532 30.8847 34.4435 30.3267 33.6795 30.0374C32.1515 29.4587 30.479 30.0374 29.653 31.422C29.1781 32.228 28.6206 32.2693 27.3817 31.6494C26.5764 31.2567 26.8242 30.6574 27.0926 30.0787C27.6295 28.9834 28.538 28.2601 29.653 27.8054C31.4908 27.0821 33.3491 27.1027 35.2075 27.6814C36.5703 28.1154 37.3756 29.0867 37.5615 30.5334C37.7266 31.8974 37.5202 33.1167 36.1367 33.964Z" fill="#1A202C"/>
<path d="M64.7969 12.6569C63.0211 12.6569 61.3898 12.6569 59.5934 12.6569C59.5934 14.0209 59.5315 15.3642 59.6141 16.6868C59.676 17.7821 59.1185 17.9268 58.2306 17.9061C57.3634 17.8855 56.682 17.9061 56.7026 16.7075C56.7646 13.1529 56.7232 9.61892 56.7232 6.0643C56.7232 4.92765 56.8265 4.92765 58.3338 4.88632C59.263 4.86565 59.6554 5.13432 59.6141 6.10564C59.5521 7.32495 59.5934 8.56494 59.5934 9.84625C61.3485 9.84625 63.0004 9.84625 64.7969 9.84625C64.7969 8.56494 64.8588 7.30429 64.7762 6.04364C64.7143 4.78299 65.5196 4.90699 66.3249 4.88632C67.1508 4.86565 67.6877 4.94832 67.667 6.02297C67.6051 9.57759 67.6051 13.1115 67.667 16.6662C67.6877 17.8441 67.0889 17.9268 66.201 17.9061C64.8795 17.8648 64.7969 17.8235 64.7762 16.6042C64.7969 15.3228 64.7969 14.0209 64.7969 12.6569Z" fill="#1A202C"/>
<path d="M24.0148 7.63502C22.714 7.63502 21.5577 7.63502 20.3187 7.63502C20.2362 9.16433 20.2155 10.673 20.0916 12.161C19.9677 13.7109 19.658 15.2196 18.6256 16.4802C18.3365 16.8316 18.068 17.2242 17.6964 17.4309C17.1595 17.7409 16.3129 18.2369 16.0032 18.0302C15.4663 17.6995 15.2185 16.8936 14.9501 16.2322C14.8882 16.0669 15.1359 15.6329 15.3424 15.5089C16.602 14.7649 17.1389 13.6076 17.2215 12.2643C17.3453 10.1976 17.4073 8.15168 17.4073 6.08504C17.4073 5.19639 17.6757 4.86572 18.5843 4.86572C20.9795 4.90706 23.3954 4.90706 25.8113 4.86572C26.6166 4.86572 26.9057 5.15505 26.9057 5.96104C26.885 9.57766 26.8644 13.1943 26.9057 16.7902C26.9263 17.9889 26.1417 17.8442 25.3777 17.8855C24.5724 17.9062 23.9735 17.8649 23.9942 16.7696C24.0561 13.7729 24.0148 10.7556 24.0148 7.63502Z" fill="#1A202C"/>
<path d="M97.7117 9.78462C98.6822 10.0946 99.2397 9.80529 99.7353 9.0613C100.396 8.04864 101.181 7.13932 101.903 6.168C102.915 4.82469 104.01 4.51469 106.054 5.21735C105.352 6.12667 104.691 6.95333 104.03 7.80065C103.349 8.66864 102.667 9.51596 101.986 10.3839C104.071 12.4093 104.774 15.1579 106.116 17.5552C104.34 18.3612 103.122 17.9685 102.44 16.4805C102.151 15.8605 101.862 15.2405 101.573 14.5999C100.664 12.6366 100.107 12.3473 97.7117 12.7399C97.7117 14.0419 97.6704 15.3852 97.7324 16.7079C97.7943 17.9065 97.0716 17.9065 96.2044 17.9272C95.3165 17.9478 94.8003 17.7825 94.8209 16.6872C94.8829 13.1326 94.8829 9.59862 94.8209 6.044C94.8003 4.96935 95.3165 4.86602 96.1631 4.88669C96.9684 4.90735 97.7943 4.76269 97.7324 6.02334C97.6704 7.28399 97.7117 8.5033 97.7117 9.78462Z" fill="#1A202C"/>
<path d="M81.6252 11.4376C81.6252 10.549 81.5839 9.63966 81.6458 8.751C81.7284 7.57302 82.2033 6.56037 83.1119 5.77505C85.1561 4.03907 89.389 4.10107 91.3713 5.94038C91.6191 6.16771 91.9082 6.4157 92.0321 6.7257C92.2592 7.30436 92.7341 8.17235 92.507 8.48234C92.1353 8.97834 91.3094 9.16433 90.628 9.35033C90.4421 9.39166 90.0498 9.04033 89.9053 8.79234C88.9967 7.28369 87.6339 6.7257 85.9614 7.26303C85.0322 7.57302 84.5366 8.21368 84.4953 9.16433C84.454 10.5076 84.4334 11.851 84.454 13.1943C84.4747 14.5789 85.0115 15.2816 86.1472 15.5916C87.5926 15.9842 88.9761 15.5296 89.6162 14.4549C90.2769 13.3596 91.2061 13.1323 92.2179 13.9383C92.4657 14.1449 92.5689 14.8269 92.4244 15.1576C91.8669 16.6249 90.7519 17.6789 89.2032 17.9269C87.8404 18.1335 86.395 18.2162 85.0322 17.9682C82.9054 17.5962 81.7491 16.0669 81.6045 13.8969C81.5632 13.0909 81.6252 12.2643 81.6252 11.4376Z" fill="#1A202C"/>
<path d="M76.3398 7.5937C76.3398 9.63967 76.3398 11.5616 76.3398 13.463C76.3398 14.3516 76.3398 15.2609 76.3398 16.1496C76.3398 17.8442 75.6791 18.3609 74.0891 17.8236C73.8001 17.7202 73.511 17.1002 73.511 16.7076C73.449 14.0829 73.4903 11.479 73.4903 8.85435C73.4903 8.48235 73.4903 8.11036 73.4903 7.57303C72.4579 7.57303 71.4668 7.5317 70.4963 7.57303C69.4226 7.61437 69.5051 6.91171 69.4845 6.20905C69.4638 5.46506 69.4845 4.84507 70.5169 4.86574C73.4697 4.90707 76.4224 4.90707 79.3958 4.86574C80.3663 4.86574 80.4283 5.4444 80.4076 6.14705C80.387 6.82904 80.5315 7.5937 79.4371 7.57303C78.4253 7.57303 77.4755 7.5937 76.3398 7.5937Z" fill="#1A202C"/>
</svg>
