<svg width="23" height="16" viewBox="0 0 23 16" fill="none" xmlns="http://www.w3.org/2000/svg">
<path d="M20.7882 3.05298C20.5576 2.17204 19.8822 1.47745 19.0255 1.24028C17.4604 0.799805 11.2002 0.799805 11.2002 0.799805C11.2002 0.799805 4.93988 0.799805 3.37482 1.22333C2.53462 1.46051 1.8427 2.17204 1.61206 3.05298C1.2002 4.66239 1.2002 7.9998 1.2002 7.9998C1.2002 7.9998 1.2002 11.3542 1.61206 12.9466C1.8427 13.8276 2.51815 14.5222 3.37482 14.7593C4.95636 15.1998 11.2002 15.1998 11.2002 15.1998C11.2002 15.1998 17.4604 15.1998 19.0255 14.7763C19.8822 14.5391 20.5576 13.8445 20.7882 12.9636C21.2001 11.3542 21.2001 8.01675 21.2001 8.01675C21.2001 8.01675 21.2166 4.66239 20.7882 3.05298Z" fill="#1A202C"/>
<path d="M14.4129 7.99931L9.20703 4.91602V11.0826L14.4129 7.99931Z" fill="white"/>
</svg>
