<svg width="16" height="16" viewBox="0 0 16 16" fill="none" xmlns="http://www.w3.org/2000/svg">
<path d="M12.9231 0H3.07692C1.36751 0 0 1.36751 0 3.07695V12.9231C0 14.6325 1.36751 16 3.07692 16H12.9231C14.6325 16 16 14.6325 16 12.9231V3.07692C16 1.36751 14.6325 0 12.9231 0ZM13.812 1.84617H14.1538V4.58118H11.4188V1.84617H13.812ZM5.74359 6.35898C6.22223 5.67523 7.11113 5.19657 8 5.19657C8.8889 5.19657 9.77777 5.67523 10.2564 6.35898C10.5983 6.83761 10.8034 7.38461 10.8034 8C10.8034 9.57265 9.50426 10.8034 8 10.8034C6.49574 10.8034 5.1966 9.57265 5.1966 8C5.1966 7.38461 5.40172 6.83761 5.74359 6.35898ZM14.4273 12.9231C14.4273 13.7436 13.7436 14.4274 12.9231 14.4274H3.07692C2.25641 14.4274 1.57265 13.7436 1.57265 12.9231V6.35898H3.96582C3.76067 6.83761 3.62394 7.453 3.62394 8C3.62394 10.3932 5.60684 12.3761 8 12.3761C10.3932 12.3761 12.3761 10.3932 12.3761 8C12.3761 7.453 12.2393 6.83759 12.0342 6.35898H14.4273L14.4273 12.9231Z" fill="#1A202C"/>
</svg>
