<svg width="16" height="17" viewBox="0 0 16 17" fill="none" xmlns="http://www.w3.org/2000/svg">
<g clip-path="url(#clip0)">
<path d="M16 3.53836C15.4113 3.79969 14.7787 3.97569 14.1147 4.05502C14.7927 3.64902 15.3133 3.00569 15.558 2.23902C14.924 2.61502 14.2213 2.88836 13.4733 3.03569C12.8753 2.39769 12.0213 1.99902 11.0773 1.99902C8.958 1.99902 7.40067 3.97636 7.87933 6.02902C5.152 5.89236 2.73333 4.58569 1.114 2.59969C0.254 4.07502 0.668 6.00502 2.12933 6.98236C1.592 6.96502 1.08533 6.81769 0.643333 6.57169C0.607333 8.09236 1.69733 9.51502 3.276 9.83169C2.814 9.95702 2.308 9.98636 1.79333 9.88769C2.21067 11.1917 3.42267 12.1404 4.86 12.167C3.48 13.249 1.74133 13.7324 0 13.527C1.45267 14.4584 3.17867 15.0017 5.032 15.0017C11.1267 15.0017 14.57 9.85436 14.362 5.23769C15.0033 4.77436 15.56 4.19636 16 3.53836Z" fill="#1A202C"/>
</g>
<defs>
<clipPath id="clip0">
<rect width="16" height="16" fill="white" transform="translate(0 0.5)"/>
</clipPath>
</defs>
</svg>
