<svg width="22" height="14" viewBox="0 0 22 14" fill="none" xmlns="http://www.w3.org/2000/svg">
<path fill-rule="evenodd" clip-rule="evenodd" d="M21.1027 1.45857C21.2546 0.953293 21.1027 0.599609 20.3936 0.599609H18.0301C17.4224 0.599609 17.1522 0.919611 17.0003 1.27329C17.0003 1.27329 15.8017 4.20384 14.0966 6.09014C13.5395 6.64594 13.3031 6.81435 12.9992 6.81435C12.8473 6.81435 12.6278 6.64594 12.6278 6.14066V1.45857C12.6278 0.85225 12.459 0.599609 11.9526 0.599609H8.23848C7.86708 0.599609 7.63075 0.88593 7.63075 1.13857C7.63075 1.71121 8.47484 1.84594 8.57612 3.42911V6.89858C8.57612 7.65647 8.44108 7.7912 8.1372 7.7912C7.34375 7.7912 5.38541 4.86068 4.23744 1.49225C4.00108 0.86909 3.7816 0.599609 3.17383 0.599609H0.810364C0.135077 0.599609 0 0.919611 0 1.27329C0 1.89646 0.793449 4.99541 3.73095 9.08805C5.68929 11.8838 8.44108 13.3996 10.9396 13.3996C12.4422 13.3996 12.6278 13.0628 12.6278 12.4902V10.3681C12.6278 9.69437 12.7629 9.55961 13.2525 9.55961C13.607 9.55961 14.1979 9.72805 15.5991 11.0754C17.2029 12.6754 17.473 13.3996 18.3678 13.3996H20.7313C21.4066 13.3996 21.7442 13.0628 21.5416 12.406C21.3222 11.7491 20.5624 10.7891 19.5495 9.64385C18.9924 8.987 18.1652 8.29648 17.9288 7.94279C17.5743 7.48803 17.6756 7.28595 17.9288 6.89858C17.9288 6.88174 20.8157 2.83963 21.1027 1.45857Z" fill="#1A202C"/>
</svg>
